<?xml version="1.0" encoding="UTF-8"?><svg xmlns="http://www.w3.org/2000/svg" viewBox="0 0 614.89 186.92"><defs><style>.d,.e{fill:#fff;}.e,.f{fill-rule:evenodd;}.g,.f{fill:#030712;}</style></defs><g id="a"/><g id="b"><g id="c"><path class="e" d="M496.86,134.15H10.28c-6.92,0-11.43-5.38-10.02-11.96L23.91,11.96C25.32,5.38,32.14,0,39.06,0h486.58c6.92,0,11.43,5.38,10.02,11.96l-23.65,110.23c-1.41,6.58-8.23,11.96-15.16,11.96Z"/><g><path class="g" d="M80.68,54.21c-.98,4.48-2.52,7.35-4.9,9.17-2.38,1.75-5.53,2.45-11.41,2.45-8.54,0-11.55-1.82-11.55-7,0-1.4,.21-3.08,.49-4.62l7.56-35.56h10.85l-7.63,35.84c-.07,.35-.14,.77-.14,1.12,0,1.19,.77,1.82,2.38,1.82,1.96,0,3.08-.91,3.5-2.94l7.63-35.84h10.78l-7.56,35.56Z"/><path class="g" d="M95.09,18.65h10.78l-8.12,38.29h10.5l-1.82,8.4h-21.28l9.94-46.69Z"/><path class="g" d="M120.57,27.05h-7.56l1.82-8.4h25.9l-1.82,8.4h-7.49l-8.19,38.29h-10.78l8.12-38.29Z"/><path class="g" d="M143.67,18.65h10.78l-9.94,46.69h-10.78l9.94-46.69Z"/><path class="g" d="M169.85,25.86h-.14l-8.33,39.48h-9.66l9.94-46.69h16.94l-2.52,36.75h.14l13.09-36.75h17.01l-9.94,46.69h-9.87l8.75-39.34h-.07l-15.33,39.34h-12.39l2.38-39.48Z"/><path class="g" d="M217.66,18.65h17.57l-2.8,46.69h-10.99l.98-11.2h-7l-3.78,11.2h-10.99l17.01-46.69Zm7.49,6.44h-.14l-7,21.07h5.18l1.96-21.07Z"/><path class="g" d="M247.83,27.05h-7.56l1.82-8.4h25.9l-1.82,8.4h-7.49l-8.19,38.29h-10.78l8.12-38.29Z"/><path class="g" d="M270.93,18.65h20.72l-1.75,8.4h-9.94l-2.24,10.22h9.31l-1.75,7.98h-9.24l-2.45,11.69h10.71l-1.75,8.4h-21.56l9.94-46.69Z"/><path class="g" d="M314.89,18.65h20.37l-1.82,8.4h-9.52l-2.45,11.55h8.68l-1.75,8.4h-8.75l-3.92,18.34h-10.78l9.94-46.69Z"/><path class="g" d="M340.23,18.65h13.3c9.59,0,13.02,1.75,13.02,6.65,0,1.26-.21,2.94-.56,4.48l-1.19,5.6c-1.33,6.23-3.71,8.61-9.31,9.52l-.07,.14c4.83,1.05,6.09,2.1,6.09,4.83,0,.7-.14,1.75-.35,2.73l-2.66,12.74h-10.85l2.87-13.37c.07-.28,.07-.49,.07-.77,0-1.4-1.26-1.96-4.27-1.96h-1.82l-3.43,16.1h-10.78l9.94-46.69Zm6.02,22.54h2.03c3.64,0,4.69-.77,5.39-4.06l1.47-7c.07-.49,.14-.84,.14-1.33,0-1.47-.91-2.17-2.73-2.17h-3.22l-3.08,14.56Z"/><path class="g" d="M374.88,18.65h10.78l-9.94,46.69h-10.78l9.94-46.69Z"/><path class="g" d="M394.62,53.37c-.28,1.19-.42,2.17-.42,2.73,0,1.26,.7,1.75,2.66,1.75,2.31,0,3.36-.77,3.78-2.73l1.05-5.04c.14-.63,.21-1.26,.21-1.75,0-1.26-.91-1.82-3.85-2.59-4.27-1.05-5.53-1.47-6.86-2.24-2.03-1.12-3.01-2.66-3.01-4.9,0-1.33,.28-3.5,.7-5.6l.63-2.87c2.1-9.8,4.9-11.97,15.68-11.97,8.19,0,11.41,1.68,11.41,6.09,0,1.12-.07,1.96-.28,3.01l-1.19,5.6h-9.66l.49-2.24c.28-1.33,.42-2.38,.42-2.94,0-1.26-.49-1.54-2.38-1.54-2.66,0-3.36,.63-3.92,3.36l-.7,3.08c-.14,.7-.21,1.4-.21,1.75,0,1.33,.63,1.82,3.29,2.52,8.61,2.24,10.64,3.78,10.64,7.7s-1.4,10.29-3.22,14.56c-.91,2.1-2.73,4.06-4.83,5.18-2.1,1.05-5.04,1.54-9.59,1.54-8.33,0-11.69-1.75-11.69-6.02,0-1.75,.21-3.78,.7-5.95l.84-3.85h10.01l-.7,3.36Z"/><path class="g" d="M425.42,18.65h15.96c7.28,0,10.01,1.47,10.01,5.39s-1.4,10.15-2.87,12.74c-1.47,2.38-3.29,3.5-7.21,4.27v.14c4.27,.56,6.09,2.24,6.09,5.74,0,5.04-1.96,11.76-4.27,14.63-2.03,2.66-5.11,3.78-9.94,3.78h-17.71l9.94-46.69Zm2.59,38.71h3.15c2.73,0,3.5-.77,4.27-4.34l.7-3.43c.28-1.12,.35-1.75,.35-2.17,0-1.54-.7-2.1-2.73-2.1h-3.22l-2.52,12.04Zm4.13-19.67h2.59c3.01-.07,3.71-.7,4.41-4.13l.63-2.87c.14-.77,.28-1.68,.28-2.1,0-1.47-.77-1.96-2.94-1.96h-2.59l-2.38,11.06Z"/><path class="g" d="M460.28,18.65h20.72l-1.75,8.4h-9.94l-2.24,10.22h9.31l-1.75,7.98h-9.24l-2.45,11.69h10.71l-1.75,8.4h-21.56l9.94-46.69Z"/><path class="g" d="M488,18.65h20.72l-1.75,8.4h-9.94l-2.24,10.22h9.31l-1.75,7.98h-9.24l-2.45,11.69h10.71l-1.75,8.4h-21.56l9.94-46.69Z"/><path class="g" d="M90.59,70.65h17.57l-2.8,46.69h-10.99l.98-11.2h-7l-3.78,11.2h-10.99l17.01-46.69Zm7.49,6.44h-.14l-7,21.07h5.18l1.96-21.07Z"/><path class="g" d="M121.04,105.37c-.28,1.19-.42,2.17-.42,2.73,0,1.26,.7,1.75,2.66,1.75,2.31,0,3.36-.77,3.78-2.73l1.05-5.04c.14-.63,.21-1.26,.21-1.75,0-1.26-.91-1.82-3.85-2.59-4.27-1.05-5.53-1.47-6.86-2.24-2.03-1.12-3.01-2.66-3.01-4.9,0-1.33,.28-3.5,.7-5.6l.63-2.87c2.1-9.8,4.9-11.97,15.68-11.97,8.19,0,11.41,1.68,11.41,6.09,0,1.12-.07,1.96-.28,3.01l-1.19,5.6h-9.66l.49-2.24c.28-1.33,.42-2.38,.42-2.94,0-1.26-.49-1.54-2.38-1.54-2.66,0-3.36,.63-3.92,3.36l-.7,3.08c-.14,.7-.21,1.4-.21,1.75,0,1.33,.63,1.82,3.29,2.52,8.61,2.24,10.64,3.78,10.64,7.7s-1.4,10.29-3.22,14.56c-.91,2.1-2.73,4.06-4.83,5.18-2.1,1.05-5.04,1.54-9.59,1.54-8.33,0-11.69-1.75-11.69-6.02,0-1.75,.21-3.78,.7-5.95l.84-3.85h10.01l-.7,3.36Z"/><path class="g" d="M153.17,105.37c-.28,1.19-.42,2.17-.42,2.73,0,1.26,.7,1.75,2.66,1.75,2.31,0,3.36-.77,3.78-2.73l1.05-5.04c.14-.63,.21-1.26,.21-1.75,0-1.26-.91-1.82-3.85-2.59-4.27-1.05-5.53-1.47-6.86-2.24-2.03-1.12-3.01-2.66-3.01-4.9,0-1.33,.28-3.5,.7-5.6l.63-2.87c2.1-9.8,4.9-11.97,15.68-11.97,8.19,0,11.41,1.68,11.41,6.09,0,1.12-.07,1.96-.28,3.01l-1.19,5.6h-9.66l.49-2.24c.28-1.33,.42-2.38,.42-2.94,0-1.26-.49-1.54-2.38-1.54-2.66,0-3.36,.63-3.92,3.36l-.7,3.08c-.14,.7-.21,1.4-.21,1.75,0,1.33,.63,1.82,3.29,2.52,8.61,2.24,10.64,3.78,10.64,7.7s-1.4,10.29-3.22,14.56c-.91,2.1-2.73,4.06-4.83,5.18-2.1,1.05-5.04,1.54-9.59,1.54-8.33,0-11.69-1.75-11.69-6.02,0-1.75,.21-3.78,.7-5.95l.84-3.85h10.01l-.7,3.36Z"/><path class="g" d="M181.1,79.75c1.47-6.93,5.95-9.59,16.17-9.59,8.61,0,12.11,1.96,12.11,6.79,0,.98-.07,1.89-.28,2.8l-6.09,28.49c-1.47,6.93-5.88,9.59-16.1,9.59-8.61,0-12.18-1.96-12.18-6.79,0-.77,.14-1.82,.35-2.8l6.02-28.49Zm16.66,.56c.07-.21,.07-.49,.07-.84-.07-.98-.7-1.33-2.38-1.33-2.17,0-2.94,.49-3.29,2.17l-5.81,27.37c-.07,.28-.07,.56-.07,.84,0,.98,.7,1.33,2.52,1.33,2.03,0,2.8-.56,3.15-2.17l5.81-27.37Z"/><path class="g" d="M236.4,107.05c-1.82,8.19-5.32,10.78-14.63,10.78h-3.99c-6.23,0-9.17-2.24-9.17-6.93,0-.7,.14-2.03,.42-3.01l5.6-26.39c1.68-7.98,5.67-11.34,13.23-11.34h4.06c7.63,0,10.85,1.68,10.85,5.6,0,.84-.07,1.61-.28,2.38l-1.75,8.54h-10.43l1.26-6.09q.07-.21,.07-.56c0-.98-.77-1.47-2.38-1.47-1.89,0-2.94,.63-3.29,2.03l-5.67,26.88c-.07,.35-.14,.56-.14,.56-.14,.91,.84,1.47,2.52,1.47,1.89,0,2.87-.63,3.22-2.03l1.54-7.35h10.43l-1.47,6.93Z"/><path class="g" d="M250.12,70.65h10.78l-9.94,46.69h-10.78l9.94-46.69Z"/><path class="g" d="M272.31,70.65h17.57l-2.8,46.69h-10.99l.98-11.2h-7l-3.78,11.2h-10.99l17.01-46.69Zm7.49,6.44h-.14l-7,21.07h5.18l1.96-21.07Z"/><path class="g" d="M302.48,79.05h-7.56l1.82-8.4h25.9l-1.82,8.4h-7.49l-8.19,38.29h-10.78l8.12-38.29Z"/><path class="g" d="M325.58,70.65h10.78l-9.94,46.69h-10.78l9.94-46.69Z"/><path class="g" d="M340.98,79.75c1.47-6.93,5.95-9.59,16.17-9.59,8.61,0,12.11,1.96,12.11,6.79,0,.98-.07,1.89-.28,2.8l-6.09,28.49c-1.47,6.93-5.88,9.59-16.1,9.59-8.61,0-12.18-1.96-12.18-6.79,0-.77,.14-1.82,.35-2.8l6.02-28.49Zm16.66,.56c.07-.21,.07-.49,.07-.84-.07-.98-.7-1.33-2.38-1.33-2.17,0-2.94,.49-3.29,2.17l-5.81,27.37c-.07,.28-.07,.56-.07,.84,0,.98,.7,1.33,2.52,1.33,2.03,0,2.8-.56,3.15-2.17l5.81-27.37Z"/><path class="g" d="M384.66,80.94h-.14l-7.07,36.4h-9.94l9.94-46.69h15.75l.21,36.4,.14-.14,6.93-36.26h10.01l-9.94,46.69h-15.75l-.14-36.4Z"/></g><g><path class="e" d="M578.21,112.4c-27.31,19.71-98.16,30.04-133.85,20.52-18.35-4.9-25.5-15-9.5-26.75,18.29-13.44,56.85-22.02,84.21-23.61,16.59-.96,34.9-1.21,50.58,3.15,18.59,5.16,24.65,15.07,8.55,26.7m-11.21,30.11c-78.56,33.38-184.84,11.25-148.2-28.58-10.22,20.26,16.13,28.05,33.33,30.79,38.44,6.13,96.87-1.77,129.86-22.63,6.19-3.92,14.93-11.39,15.81-19.01,.72-6.24-2.68-9.41-5.01-12.23,12.59,7.04,14.71,20.35,4.56,32.18-6.03,7.03-19.38,14.81-30.35,19.48Zm-139.27,19.51c39.02,14.35,93.12,8.74,132.19-4.27,8.78-2.92,19.05-7.14,26.45-11.59,10.06-6.04,14.86-9.43,21.71-17.02,5.85-6.48,10.02-18.06,3.48-27.61-15.22-22.21-64.16-25.31-89.55-24.1-22.08,1.06-44.93,5.59-64.21,12.29-17.31,6.03-40.39,18.6-48.05,28.73-5.96,7.9-10.91,16.33-4.32,27.76,3.67,6.38,13.43,12.54,22.3,15.8Z"/><path class="f" d="M567.02,142.52c-78.56,33.38-184.84,11.25-148.2-28.58-10.22,20.26,16.13,28.05,33.33,30.79,38.44,6.13,96.87-1.77,129.86-22.63,6.19-3.92,14.93-11.39,15.81-19.01,.72-6.24-2.68-9.41-5.01-12.23,12.59,7.04,14.71,20.35,4.56,32.18-6.03,7.03-19.38,14.81-30.35,19.48Z"/><path class="f" d="M578.1,112.39c-27.31,19.71-98.16,30.04-133.85,20.52-18.35-4.9-25.5-15-9.5-26.75,18.29-13.44,56.85-22.02,84.21-23.61,16.59-.96,34.9-1.21,50.58,3.15,18.59,5.16,24.65,15.07,8.55,26.7"/></g><g><path class="d" d="M165.53,144.03h9.8l-7.38,34.81h9.55l-1.65,7.64h-19.35l9.04-42.45Z"/><path class="d" d="M189.58,144.03h18.84l-1.59,7.64h-9.04l-2.04,9.29h8.47l-1.59,7.25h-8.4l-2.23,10.63h9.74l-1.59,7.64h-19.6l9.04-42.45Z"/><path class="d" d="M218.09,144.03h15.97l-2.54,42.45h-9.99l.89-10.18h-6.36l-3.44,10.18h-9.99l15.46-42.45Zm6.81,5.85h-.13l-6.36,19.16h4.71l1.78-19.16Z"/><path class="d" d="M262.12,177.25c-1.66,7.64-4.71,9.67-14.64,9.67-8.08,0-11.33-1.72-11.33-6.17,0-.7,.13-1.66,.32-2.55l5.47-25.9c1.34-6.36,5.41-8.72,14.83-8.72,7.76,0,10.75,1.78,10.75,6.43,0,1.08-.13,2.36-.38,3.56l-.89,4.2h-9.48l.95-4.45c.06-.38,.13-.83,.13-1.02,0-1.08-.76-1.46-2.67-1.46-2.1,0-2.86,.57-3.31,2.67l-5.22,24.56c-.06,.19-.06,.32-.06,.38-.06,.83,.76,1.21,2.48,1.21,2.1,0,3.12-.45,3.31-1.4l1.46-6.68h-3.05l1.72-7.95h12.47l-2.86,13.62Z"/><path class="d" d="M292.78,176.36c-.89,4.07-2.29,6.68-4.45,8.34-2.16,1.59-5.03,2.23-10.37,2.23-7.76,0-10.5-1.65-10.5-6.36,0-1.27,.19-2.8,.45-4.2l6.87-32.33h9.86l-6.94,32.58c-.06,.32-.13,.7-.13,1.02,0,1.08,.7,1.65,2.16,1.65,1.78,0,2.8-.83,3.18-2.67l6.94-32.58h9.8l-6.87,32.33Z"/><path class="d" d="M305.89,144.03h18.84l-1.59,7.64h-9.04l-2.04,9.29h8.46l-1.59,7.25h-8.4l-2.23,10.63h9.74l-1.59,7.64h-19.6l9.04-42.45Z"/><path class="d" d="M347.44,175.6c-.25,1.08-.38,1.97-.38,2.48,0,1.15,.64,1.59,2.42,1.59,2.1,0,3.05-.7,3.44-2.48l.95-4.58c.13-.57,.19-1.15,.19-1.59,0-1.15-.83-1.65-3.5-2.35-3.88-.96-5.03-1.34-6.24-2.04-1.85-1.02-2.74-2.42-2.74-4.45,0-1.21,.25-3.18,.64-5.09l.57-2.61c1.91-8.91,4.45-10.88,14.26-10.88,7.45,0,10.37,1.53,10.37,5.54,0,1.02-.06,1.78-.25,2.74l-1.08,5.09h-8.78l.45-2.04c.25-1.21,.38-2.16,.38-2.67,0-1.15-.45-1.4-2.16-1.4-2.42,0-3.05,.57-3.56,3.05l-.64,2.8c-.13,.64-.19,1.27-.19,1.59,0,1.21,.57,1.65,2.99,2.29,7.83,2.04,9.67,3.44,9.67,7s-1.27,9.36-2.93,13.24c-.83,1.91-2.48,3.69-4.39,4.71-1.91,.95-4.58,1.4-8.72,1.4-7.57,0-10.63-1.59-10.63-5.47,0-1.59,.19-3.44,.64-5.41l.76-3.5h9.1l-.64,3.05Z"/><path class="d" d="M382.11,144.03h12.47l-9.04,42.45h-9.8l7.44-35.19h-.13l-8.34,9.55-4.2-5.09,11.58-11.71Z"/></g></g></g></svg>