<?xml version="1.0" encoding="UTF-8"?><svg xmlns="http://www.w3.org/2000/svg" viewBox="0 0 624.39 169.05"><defs><style>.d{fill:#46a5ac;}.d,.e{fill-rule:evenodd;}.e{fill:#41a5ac;}</style></defs><g id="a"/><g id="b"><g id="c"><g><path class="d" d="M472.61,67.03l9.27-46.74h21.5l-1.83,8.38h-10.61l-2.25,10.31h10l-1.76,8.06h-10l-2.54,11.6h11.52l-1.83,8.38h-21.47Zm-26.69,0l9.27-46.74h20.55l-1.83,8.38h-9.66l-2.25,10.31h9.06l-1.76,8.06h-9.06l-2.54,11.6h10.57l-.88,8.38h-21.47Zm-4.89-9.73c-.82,3.74-1.3,6.3-3.35,7.67s-5.76,2.06-11.1,2.06h-15.1l9.27-46.74h14.56c5.35,0,8.76,.7,10.23,2.11,1.47,1.41,1.8,3.98,.98,7.69l-.89,4.09c-.56,2.58-1.56,4.52-2.98,5.83-1.41,1.31-3.51,2.19-6.29,2.65,2.62,.13,4.4,.96,5.36,2.5,.96,1.54,1.12,3.81,.46,6.83l-1.16,5.29Zm-15.27-10.64l-2.66,12.18h3.29c1.33,0,2.28-.24,2.83-.71,.55-.47,.97-1.35,1.26-2.66l1.18-5.42c.28-1.3,.25-2.19-.1-2.68-.36-.48-1.2-.72-2.51-.72h-3.29Zm1.58-7.22h3.03c1.35,0,2.3-.24,2.84-.7,.54-.46,.96-1.34,1.24-2.64l.91-4.18c.29-1.31,.25-2.19-.08-2.66-.34-.47-1.18-.71-2.53-.71h-3.03l-2.38,10.9Zm-36.23,11.99l-.99,4.53c-.27,1.21-.21,2.07,.17,2.58,.37,.51,1.14,.75,2.3,.75,1.26,0,2.16-.24,2.7-.72,.55-.48,.97-1.4,1.26-2.74l.72-3.31c.22-1,.32-1.75,.3-2.23-.01-.48-.13-.91-.34-1.29-.53-.86-2.02-1.58-4.48-2.14-1.13-.26-1.99-.47-2.59-.67-2.84-.86-4.65-2.06-5.45-3.61-.79-1.55-.83-3.98-.1-7.3l.94-4.32c.92-4.19,2.37-7.11,4.36-8.78,1.98-1.65,4.98-2.48,8.99-2.48h3.22c2.51,0,4.53,.21,6.06,.64,1.52,.43,2.64,1.12,3.35,2.06,.58,.73,.88,1.67,.93,2.8,.04,1.13-.2,2.94-.75,5.44l-.79,3.62h-9.66l.64-2.92c.32-1.47,.34-2.45,.06-2.93-.29-.48-1.02-.72-2.23-.72s-1.99,.23-2.5,.68c-.51,.45-.89,1.29-1.17,2.54l-.66,3.02c-.5,2.29,1.1,3.92,4.79,4.91,1.04,.3,1.87,.54,2.48,.73,2.81,.84,4.62,2.02,5.41,3.52,.8,1.51,.83,3.91,.12,7.19l-1.38,6.3c-.86,3.91-1.44,6.72-3.68,8.44-2.23,1.72-5.45,2.58-9.64,2.58h-2.9c-4.62,0-7.62-.78-9-2.36-1.39-1.57-2.57-4.48-1.64-8.72l1.11-5.09h10.04Zm-18.89,15.6h-10.89l9.27-46.74h10.89l-9.27,46.74Zm-26.81-11.81c.35-1.61,.29-2.72-.16-3.33-.47-.61-1.53-.91-3.16-.91h-1.8l-2.56,16.05h-10.89l9.27-46.74h11.34c6.73,0,10.98,.85,12.78,2.55,1.79,1.71,2.18,4.86,1.18,9.44l-1.17,5.35c-.59,2.71-1.63,4.77-3.11,6.19-1.49,1.41-3.61,2.36-6.38,2.85,2.39,.35,4.05,1.19,4.94,2.51,.89,1.32,1.09,3.19,.56,5.6l-1.73,12.25h-10.71l1.63-11.81Zm2.42-26.68h-2.65l-3.16,14.44h2.65c1.41,0,2.4-.24,2.98-.71,.58-.47,1-1.34,1.28-2.62l1.69-7.75c.28-1.3,.24-2.18-.13-2.65-.37-.47-1.26-.71-2.67-.71Zm-46.67,38.49l9.27-46.74h20.5l-1.83,8.38h-9.61l-2.54,11.6h8.69l-1.83,8.38h-8.69l-3.07,18.37h-10.89Zm-42.81,0l9.27-46.74h20.55l-1.83,8.38h-9.66l-2.25,10.31h9.06l-1.76,8.06h-9.06l-2.54,11.6h10.57l-.88,8.38h-21.47Zm-22.12,0l7.44-38.36h-7.35l1.83-8.38h25.59l-1.83,8.38h-7.35l-7.44,38.36h-10.89Zm-38.5,0l16.23-46.74h17.42l-2.12,46.74h-11.15l.27-11.48h-6.9l-2.85,11.48h-10.9Zm16.43-19.28h4.94l2.43-22.05-7.38,22.05Zm-65.1,19.28l9.27-46.74h15.77l-1.79,36.89,14.64-36.89h15.54l-9.27,46.74h-9.86l8.35-39.5-14.94,39.5h-12.06l.66-39.5-6.9,39.5h-9.41Zm-7.23,0h-10.89l9.27-46.74h10.89l-9.27,46.74Zm-33.21,0l7.44-38.36h-7.35l1.83-8.38h25.59l-1.83,8.38h-7.35l-7.44,38.36h-10.89Zm-27.94,0l9.27-46.74h10.9l-8.38,38.36h10.31l-.88,8.38h-21.21ZM55.68,20.29h10.8l-7.72,35.3c-.28,1.29-.28,2.15,0,2.59,.28,.44,1,.66,2.17,.66s1.97-.22,2.45-.66c.48-.44,.86-1.3,1.14-2.59l7.72-35.3h10.36l-6.86,31.4c-.79,3.62-1.56,6.28-2.3,7.95-.74,1.67-1.67,3.1-2.8,4.26-1.2,1.21-1.72,2.07-3.44,2.57-1.72,.5-4.19,.75-7.41,.75s-5.67-.25-7.14-.75c-1.48-.5-3.49-1.35-4.14-2.57-.61-1.12-.91-2.5-.91-4.16,0-1.64,.4-4.33,1.22-8.06l6.86-31.4ZM363.98,119.42l10.22-46.74h15.34l.36,36.95,7.44-36.95h9.86l-10.22,46.74h-15.28l-.29-37.96-7.58,37.96h-9.86Zm-3.5-12.55c-.7,3.21-1.38,5.5-2.04,6.88-.65,1.38-1.53,2.54-2.62,3.48-1.17,1.03-2.51,1.75-4.03,2.16-1.51,.41-4.25,.61-8.22,.61s-6.65-.2-7.98-.61c-1.34-.41-2.38-1.13-3.1-2.16-.67-.97-1.03-2.16-1.1-3.58-.07-1.42,.23-3.67,.91-6.78l4.72-21.61c.68-3.11,1.35-5.36,2.03-6.77,.67-1.41,1.58-2.59,2.68-3.56,1.2-1.05,2.64-1.78,4.31-2.2,1.68-.42,4.35-.63,7.99-.63s6.18,.22,7.65,.63c1.48,.42,2.58,1.15,3.32,2.2,.68,.97,1.07,2.15,1.12,3.56,.06,1.41-.25,3.66-.93,6.77l-4.72,21.61Zm-11.49,1.54l5.39-24.65c.28-1.3,.28-2.17,0-2.61-.29-.44-1-.67-2.15-.67s-2,.23-2.49,.67c-.48,.44-.87,1.31-1.15,2.61l-5.39,24.65c-.29,1.32-.29,2.2,0,2.63,.29,.43,1.03,.64,2.2,.64s1.96-.21,2.44-.64c.48-.43,.87-1.31,1.16-2.63Zm-26.01,11.01h-10.89l10.22-46.74h10.89l-10.22,46.74Zm-33.21,0l8.38-38.36h-7.35l1.83-8.38h25.59l-1.83,8.38h-7.35l-8.38,38.36h-10.89Zm-38.5,0l17.18-46.74h17.42l-3.07,46.74h-11.15l1.22-11.48h-6.9l-3.8,11.48h-10.89Zm17.38-19.28h4.94l2.43-22.05-7.38,22.05Zm-22.09,19.28h-10.89l10.22-46.74h10.89l-10.22,46.74Zm-19.79-30.94l1.03-4.72c.29-1.32,.3-2.2,.04-2.63-.26-.43-.93-.64-2.03-.64s-1.82,.21-2.27,.63c-.44,.42-.8,1.3-1.09,2.64l-5.39,24.65c-.29,1.34-.31,2.22-.06,2.64,.26,.42,.91,.63,1.99,.63s1.86-.21,2.31-.64c.45-.43,.82-1.31,1.11-2.63l1.4-6.39h9.93l-1.06,4.85c-.69,3.16-1.35,5.43-1.97,6.82-.64,1.4-1.44,2.58-2.43,3.55-1.04,1.03-2.25,1.75-3.63,2.16-1.39,.41-3.79,.61-7.2,.61-3.99,0-6.65-.2-7.99-.61-1.33-.41-2.36-1.13-3.08-2.16-.67-.97-1.03-2.16-1.1-3.58-.07-1.42,.23-3.67,.91-6.79l4.72-21.6c.68-3.11,1.35-5.36,2.03-6.77,.67-1.41,1.57-2.59,2.68-3.56,1.2-1.05,2.64-1.78,4.31-2.2,1.68-.42,4.34-.63,7.99-.63,3.13,0,5.35,.2,6.68,.61,1.33,.41,2.29,1.13,2.88,2.16,.58,.97,.89,2.17,.91,3.61,.02,1.43-.3,3.7-.98,6.78l-.7,3.21h-9.93Zm-26.25,18.39c-.7,3.21-1.38,5.5-2.04,6.88-.66,1.38-1.53,2.54-2.62,3.48-1.17,1.03-2.51,1.75-4.03,2.16-1.51,.41-4.25,.61-8.22,.61s-6.65-.2-7.98-.61c-1.34-.41-2.38-1.13-3.1-2.16-.67-.97-1.03-2.16-1.1-3.58-.07-1.42,.23-3.67,.91-6.78l4.72-21.61c.68-3.11,1.35-5.36,2.03-6.77,.67-1.41,1.58-2.59,2.68-3.56,1.2-1.05,2.64-1.78,4.31-2.2,1.68-.42,4.35-.63,7.99-.63s6.18,.22,7.65,.63c1.48,.42,2.59,1.15,3.32,2.2,.68,.97,1.07,2.15,1.12,3.56,.06,1.41-.25,3.66-.93,6.77l-4.72,21.61Zm-11.49,1.54l5.39-24.65c.28-1.3,.28-2.17,0-2.61-.29-.44-1-.67-2.15-.67s-2,.23-2.49,.67c-.48,.44-.87,1.31-1.15,2.61l-5.39,24.65c-.29,1.32-.29,2.2,0,2.63,.29,.43,1.03,.64,2.2,.64s1.96-.21,2.44-.64c.48-.43,.87-1.31,1.16-2.63Zm-39.47-4.59l-.99,4.53c-.27,1.21-.21,2.07,.17,2.58,.37,.51,1.14,.75,2.3,.75,1.26,0,2.16-.24,2.7-.72,.55-.48,.97-1.4,1.26-2.74l.72-3.31c.22-1,.32-1.75,.3-2.23-.01-.48-.13-.91-.34-1.29-.53-.86-2.02-1.58-4.48-2.14-1.13-.26-1.99-.47-2.59-.67-2.84-.86-4.65-2.06-5.45-3.61-.79-1.55-.83-3.98-.1-7.3l.94-4.32c.92-4.19,2.37-7.11,4.36-8.78,1.98-1.65,4.98-2.48,8.99-2.48h3.22c2.51,0,4.53,.22,6.06,.64,1.52,.43,2.64,1.12,3.35,2.06,.58,.73,.88,1.67,.93,2.8,.04,1.13-.2,2.94-.75,5.44l-.79,3.62h-9.66l.64-2.92c.32-1.47,.34-2.45,.06-2.93-.29-.48-1.02-.72-2.23-.72s-1.99,.23-2.5,.68c-.51,.45-.89,1.29-1.17,2.54l-.66,3.02c-.5,2.29,1.1,3.92,4.79,4.91,1.04,.3,1.87,.54,2.48,.73,2.81,.84,4.62,2.02,5.41,3.52,.8,1.52,.83,3.91,.12,7.19l-1.38,6.3c-.86,3.91-2.39,6.72-4.63,8.44-2.23,1.72-5.45,2.58-9.64,2.58h-2.9c-4.62,0-7.62-.78-9-2.36-1.39-1.57-1.62-4.48-.69-8.72l1.11-5.09h10.04Zm-32.1,0l-.99,4.53c-.27,1.21-.21,2.07,.17,2.58,.37,.51,1.14,.75,2.3,.75,1.26,0,2.16-.24,2.7-.72,.55-.48,.97-1.4,1.26-2.74l.72-3.31c.22-1,.32-1.75,.3-2.23-.01-.48-.13-.91-.34-1.29-.53-.86-2.02-1.58-4.48-2.14-1.13-.26-1.99-.47-2.59-.67-2.84-.86-4.65-2.06-5.45-3.61-.79-1.55-.83-3.98-.1-7.3l.94-4.32c.92-4.19,2.37-7.11,4.36-8.78,1.98-1.65,4.98-2.48,8.99-2.48h3.22c2.51,0,4.53,.22,6.06,.64,1.52,.43,2.64,1.12,3.35,2.06,.58,.73,.88,1.67,.93,2.8,.04,1.13-.2,2.94-.75,5.44l-.79,3.62h-9.66l.64-2.92c.32-1.47,.34-2.45,.06-2.93-.29-.48-1.02-.72-2.23-.72s-1.99,.23-2.5,.68c-.51,.45-.89,1.29-1.17,2.54l-.66,3.02c-.5,2.29,1.1,3.92,4.79,4.91,1.04,.3,1.87,.54,2.48,.73,2.81,.84,4.62,2.02,5.41,3.52,.8,1.52,.83,3.91,.12,7.19l-1.38,6.3c-.85,3.91-2.39,6.72-4.63,8.44-2.23,1.72-5.45,2.58-9.64,2.58h-2.9c-4.62,0-7.62-.78-9-2.36-1.39-1.57-1.62-4.48-.69-8.72l1.11-5.09h10.04Zm-49.77,15.6l17.18-46.74h17.42l-3.07,46.74h-11.15l1.22-11.48h-6.9l-3.8,11.48h-10.89Zm17.38-19.28h4.94l2.43-22.05-7.38,22.05ZM37.15,0h491.08c5.86,0,9.64,4.8,8.39,10.66l-13.98,65.79-42.42,8.79-32.98,12.3-26.15,16.97-7.91,19.71H8.63c-5.86,0-9.64-4.8-8.39-10.66L24.23,10.66C25.47,4.8,31.29,0,37.15,0Z"/><path class="e" d="M587.72,110.98c-27.31,19.71-98.16,30.04-133.85,20.52-18.35-4.9-25.5-15-9.5-26.75,18.29-13.44,56.85-22.02,84.21-23.61,16.59-.96,34.9-1.21,50.58,3.15,18.59,5.16,24.65,15.07,8.55,26.7m-11.21,30.11c-78.56,33.38-184.84,11.25-148.2-28.58-10.22,20.26,16.13,28.05,33.33,30.79,38.44,6.13,96.87-1.77,129.86-22.63,6.19-3.92,14.93-11.39,15.81-19.01,.72-6.24-2.68-9.41-5.01-12.23,12.59,7.04,14.71,20.35,4.56,32.18-6.03,7.03-19.38,14.81-30.35,19.48Zm-139.27,19.51c39.02,14.35,93.12,8.74,132.19-4.27,8.78-2.92,19.05-7.14,26.45-11.59,10.06-6.04,14.86-9.43,21.71-17.02,5.85-6.48,10.02-18.06,3.48-27.61-15.22-22.21-64.16-25.31-89.55-24.1-22.08,1.06-44.93,5.59-64.21,12.29-17.31,6.03-40.39,18.6-48.05,28.73-5.96,7.9-10.91,16.33-4.32,27.76,3.67,6.38,13.43,12.54,22.3,15.8Z"/></g></g></g></svg>